<?xml version="1.0" standalone="no"?>
<!DOCTYPE svg PUBLIC "-//W3C//DTD SVG 20010904//EN"
 "http://www.w3.org/TR/2001/REC-SVG-20010904/DTD/svg10.dtd">
<svg version="1.0" xmlns="http://www.w3.org/2000/svg"
 width="800.000000pt" height="800.000000pt" viewBox="0 0 800.000000 800.000000"
 preserveAspectRatio="xMidYMid meet">
<metadata>
Created by potrace 1.14, written by Peter Selinger 2001-2017
</metadata>
<g transform="translate(0.000000,800.000000) scale(0.100000,-0.100000)"
fill="#000000" stroke="none">
<path d="M640 4000 l0 -4001 2278 4 c1252 2 2300 7 2327 10 70 9 214 27 253
32 18 2 45 6 60 9 15 3 41 8 57 11 17 3 41 7 55 10 14 3 36 7 50 10 14 3 40 9
58 14 18 5 35 10 37 10 3 1 6 1 8 2 1 0 9 2 17 4 28 5 165 46 185 55 37 16 60
24 70 25 6 1 32 11 59 23 27 12 54 22 61 22 8 0 15 5 17 11 2 5 10 11 18 13
21 3 197 92 210 106 3 3 30 21 60 40 30 19 61 41 69 48 8 7 25 21 39 30 57 37
223 197 272 261 29 37 85 110 100 128 6 7 10 15 10 19 0 4 6 15 14 23 30 34
156 279 156 303 0 8 4 18 9 23 13 15 68 184 86 265 35 153 45 203 50 245 4 28
8 61 10 74 21 125 27 610 10 736 -4 33 -9 69 -10 80 -11 113 -51 282 -98 420
-19 55 -39 109 -45 120 -5 11 -32 64 -58 118 -26 53 -52 97 -56 97 -4 0 -8 6
-8 13 0 24 -142 202 -225 282 -110 106 -131 125 -142 125 -5 0 -15 9 -23 20
-8 11 -18 20 -23 20 -5 0 -23 11 -41 25 -18 14 -38 25 -44 25 -7 0 -12 5 -12
10 0 6 -6 10 -14 10 -8 0 -16 3 -18 8 -1 4 -48 29 -103 56 -55 27 -109 53
-119 59 -53 26 -282 101 -376 121 -90 20 -127 28 -140 30 -11 2 -13 15 -11 52
3 54 3 54 23 58 7 2 31 7 53 11 22 5 42 10 45 10 92 18 360 121 440 170 77 48
85 52 94 53 5 0 12 4 15 9 3 5 33 29 66 53 54 39 206 185 245 236 40 52 90
122 90 128 0 3 17 34 38 68 80 131 163 377 186 551 3 18 7 48 10 67 14 86 18
178 18 360 0 195 -9 349 -26 426 -2 12 -7 39 -10 60 -4 22 -14 67 -22 102 -9
35 -17 71 -19 80 -2 9 -4 17 -5 17 -1 0 -3 7 -5 15 -2 8 -17 53 -35 100 -17
47 -37 100 -43 118 -7 17 -15 32 -19 32 -5 0 -8 9 -8 20 0 11 -3 20 -8 20 -4
0 -14 15 -21 33 -20 43 -89 155 -121 193 -14 17 -41 51 -60 74 -34 43 -131
139 -200 197 -55 48 -195 140 -263 174 -34 18 -65 37 -69 43 -4 6 -8 8 -8 4 0
-3 -28 7 -61 23 -58 29 -326 122 -379 133 -14 3 -79 16 -145 30 -66 13 -140
27 -165 30 -25 3 -54 8 -65 10 -11 2 -54 7 -95 11 -41 5 -91 10 -110 13 -19 3
-1040 7 -2267 9 l-2233 4 0 -4001z m3840 2859 c41 -5 91 -11 110 -14 19 -3 49
-8 65 -10 59 -10 211 -57 273 -86 100 -46 198 -114 268 -185 35 -36 64 -69 64
-73 0 -5 10 -19 21 -32 33 -37 96 -175 123 -269 23 -82 32 -129 41 -215 5 -50
6 -289 1 -330 -12 -94 -17 -131 -27 -173 -6 -26 -12 -54 -14 -62 -2 -8 -4 -16
-5 -17 -2 -2 -3 -6 -4 -10 -32 -144 -160 -329 -301 -439 -58 -45 -221 -129
-270 -139 -5 -1 -30 -8 -55 -15 -60 -18 -56 -17 -125 -31 -153 -30 -222 -32
-1305 -33 l-1035 -1 -3 1072 -2 1073 1052 -1 c579 -1 1087 -5 1128 -10z m60
-3183 c41 -5 109 -14 150 -22 41 -8 85 -16 97 -18 68 -12 238 -79 318 -125 98
-56 163 -110 253 -207 61 -66 164 -253 187 -339 5 -16 10 -34 11 -40 6 -18 43
-189 49 -225 9 -53 16 -214 15 -310 -5 -274 -44 -468 -129 -652 -35 -76 -128
-218 -142 -218 -5 0 -9 -6 -9 -12 -1 -7 -19 -26 -40 -43 -21 -16 -39 -36 -40
-42 0 -7 -4 -13 -9 -13 -5 0 -16 -6 -23 -13 -36 -35 -250 -156 -291 -165 -4
-1 -37 -10 -73 -22 -36 -11 -76 -22 -88 -24 -11 -3 -31 -7 -43 -10 -11 -2 -43
-8 -70 -12 -26 -3 -57 -8 -68 -10 -72 -14 -307 -17 -1240 -17 l-1050 -1 -3
1265 c-1 695 0 1269 2 1275 5 12 2114 12 2236 0z"/>
</g>
</svg>
